<svg width="28" height="24" viewBox="0 0 28 24" fill="none" xmlns="http://www.w3.org/2000/svg">
<mask id="path-1-inside-1_218_26" fill="white">
<path d="M16.7144 0.254814L27.6493 11.0352C27.7057 11.0908 27.7507 11.157 27.7816 11.23C27.8124 11.303 27.8286 11.3814 27.8292 11.4607C27.8298 11.5399 27.8147 11.6186 27.7849 11.692C27.755 11.7654 27.711 11.8323 27.6553 11.8887L16.875 22.8235C16.7626 22.9375 16.6095 23.0022 16.4495 23.0033C16.2894 23.0044 16.1354 22.942 16.0214 22.8296C15.9074 22.7172 15.8428 22.5641 15.8416 22.4041C15.8405 22.244 15.903 22.09 16.0154 21.976L25.7731 12.0785L0.68906 12.2569C0.529082 12.2581 0.375204 12.1956 0.261278 12.0833C0.147352 11.971 0.0827092 11.818 0.0815713 11.658C0.0804335 11.498 0.142894 11.3442 0.255211 11.2302C0.367528 11.1163 0.520502 11.0517 0.68048 11.0505L25.7645 10.8721L15.867 1.11441C15.753 1.00203 15.6883 0.848972 15.6872 0.688904C15.686 0.528837 15.7485 0.374875 15.8609 0.260885C15.9733 0.146895 16.1264 0.0822157 16.2864 0.0810772C16.4465 0.0799388 16.6005 0.142435 16.7144 0.254814Z"/>
</mask>
<path d="M16.7144 0.254814L27.6493 11.0352C27.7057 11.0908 27.7507 11.157 27.7816 11.23C27.8124 11.303 27.8286 11.3814 27.8292 11.4607C27.8298 11.5399 27.8147 11.6186 27.7849 11.692C27.755 11.7654 27.711 11.8323 27.6553 11.8887L16.875 22.8235C16.7626 22.9375 16.6095 23.0022 16.4495 23.0033C16.2894 23.0044 16.1354 22.942 16.0214 22.8296C15.9074 22.7172 15.8428 22.5641 15.8416 22.4041C15.8405 22.244 15.903 22.09 16.0154 21.976L25.7731 12.0785L0.68906 12.2569C0.529082 12.2581 0.375204 12.1956 0.261278 12.0833C0.147352 11.971 0.0827092 11.818 0.0815713 11.658C0.0804335 11.498 0.142894 11.3442 0.255211 11.2302C0.367528 11.1163 0.520502 11.0517 0.68048 11.0505L25.7645 10.8721L15.867 1.11441C15.753 1.00203 15.6883 0.848972 15.6872 0.688904C15.686 0.528837 15.7485 0.374875 15.8609 0.260885C15.9733 0.146895 16.1264 0.0822157 16.2864 0.0810772C16.4465 0.0799388 16.6005 0.142435 16.7144 0.254814Z" fill="black"/>
<path d="M16.7144 0.254814L297.538 -284.592L297.538 -284.592L16.7144 0.254814ZM27.6493 11.0352L-253.175 295.882L-253.095 295.96L-253.016 296.038L27.6493 11.0352ZM27.6553 11.8887L-257.036 -269.094L-257.114 -269.014L-257.192 -268.935L27.6553 11.8887ZM16.875 22.8235L301.722 303.647L301.722 303.647L16.875 22.8235ZM16.4495 23.0033L19.2943 422.993L16.4495 23.0033ZM15.8416 22.4041L415.832 19.5592L15.8416 22.4041ZM16.0154 21.976L-268.832 -258.848L-268.832 -258.848L16.0154 21.976ZM25.7731 12.0785L310.62 292.902L988.589 -394.779L22.9282 -387.911L25.7731 12.0785ZM25.7645 10.8721L28.6093 410.862L994.27 403.994L306.588 -273.975L25.7645 10.8721ZM15.867 1.11441L-264.957 285.962L-264.957 285.962L15.867 1.11441ZM15.6872 0.688904L415.677 -2.15592L15.6872 0.688904ZM16.2864 0.0810772L19.1313 400.071L16.2864 0.0810772ZM-264.109 285.102L-253.175 295.882L308.473 -273.812L297.538 -284.592L-264.109 285.102ZM-253.016 296.038C-290.412 259.212 -320.184 215.375 -340.629 167.03L396.192 -144.57C375.686 -193.061 345.823 -237.031 308.315 -273.968L-253.016 296.038ZM-340.629 167.03C-361.074 118.686 -371.787 66.788 -372.161 14.3055L427.819 8.61584C427.445 -44.0252 416.699 -96.0795 396.192 -144.57L-340.629 167.03ZM-372.161 14.3055C-372.534 -38.1769 -362.56 -90.2217 -342.804 -138.852L398.374 162.236C418.189 113.459 428.193 61.2568 427.819 8.61584L-372.161 14.3055ZM-342.804 -138.852C-323.049 -187.483 -293.903 -231.739 -257.036 -269.094L312.346 292.871C349.325 255.404 378.559 211.014 398.374 162.236L-342.804 -138.852ZM-257.192 -268.935L-267.972 -258L301.722 303.647L312.502 292.713L-257.192 -268.935ZM-267.972 -258C-193.605 -333.434 -92.318 -376.233 13.6046 -376.987L19.2943 422.993C125.537 422.238 227.13 379.308 301.722 303.647L-267.972 -258ZM13.6046 -376.987C119.529 -377.74 221.413 -336.384 296.845 -262.018L-264.803 307.677C-189.143 382.268 -86.9501 423.749 19.2943 422.993L13.6046 -376.987ZM296.845 -262.018C372.277 -187.651 415.078 -86.3654 415.832 19.5592L-384.148 25.2489C-383.393 131.494 -340.462 233.086 -264.803 307.677L296.845 -262.018ZM415.832 19.5592C416.585 125.483 375.229 227.368 300.863 302.8L-268.832 -258.848C-343.423 -183.188 -384.904 -80.9955 -384.148 25.2489L415.832 19.5592ZM300.863 302.8L310.62 292.902L-259.074 -268.745L-268.832 -258.848L300.863 302.8ZM22.9282 -387.911L-2.15578 -387.733L3.5339 412.247L28.6179 412.068L22.9282 -387.911ZM-2.15578 -387.733C103.767 -388.486 205.652 -347.131 281.085 -272.764L-280.563 296.93C-204.902 371.523 -102.709 413.002 3.5339 412.247L-2.15578 -387.733ZM281.085 -272.764C356.518 -198.397 399.318 -97.1105 400.071 8.81319L-399.908 14.5029C-399.153 120.746 -356.223 222.339 -280.563 296.93L281.085 -272.764ZM400.071 8.81319C400.825 114.737 359.469 216.622 285.102 292.054L-284.592 -269.594C-359.184 -193.933 -400.664 -91.7407 -399.908 14.5029L400.071 8.81319ZM285.102 292.054C210.735 367.487 109.448 410.287 3.52532 411.04L-2.16436 -388.939C-108.407 -388.184 -210 -345.254 -284.592 -269.594L285.102 292.054ZM3.52532 411.04L28.6093 410.862L22.9197 -389.118L-2.16436 -388.939L3.52532 411.04ZM306.588 -273.975L296.691 -283.733L-264.957 285.962L-255.059 295.719L306.588 -273.975ZM296.691 -283.733C372.123 -209.366 414.924 -108.08 415.677 -2.15592L-384.303 3.53373C-383.547 109.778 -340.617 211.37 -264.957 285.962L296.691 -283.733ZM415.677 -2.15592C416.43 103.769 375.074 205.654 300.708 281.085L-268.986 -280.563C-343.577 -204.904 -385.058 -102.711 -384.303 3.53373L415.677 -2.15592ZM300.708 281.085C226.343 356.515 125.057 399.318 19.1313 400.071L13.4416 -399.909C-92.8046 -399.153 -194.396 -356.222 -268.986 -280.563L300.708 281.085ZM19.1313 400.071C-86.7941 400.824 -188.678 359.468 -264.109 285.102L297.538 -284.592C221.879 -359.183 119.687 -400.664 13.4416 -399.909L19.1313 400.071Z" fill="black" mask="url(#path-1-inside-1_218_26)"/>
</svg>
