<svg width="28" height="28" viewBox="0 0 28 28" fill="none" xmlns="http://www.w3.org/2000/svg">
<path d="M9.1875 10.5C8.8394 10.5 8.50556 10.6383 8.25942 10.8844C8.01328 11.1306 7.875 11.4644 7.875 11.8125V19.6875C7.875 20.0356 8.01328 20.3694 8.25942 20.6156C8.50556 20.8617 8.8394 21 9.1875 21C9.5356 21 9.86944 20.8617 10.1156 20.6156C10.3617 20.3694 10.5 20.0356 10.5 19.6875V11.8125C10.5 11.4644 10.3617 11.1306 10.1156 10.8844C9.86944 10.6383 9.5356 10.5 9.1875 10.5ZM12.6875 13.5625C12.6875 13.2144 12.8258 12.8806 13.0719 12.6344C13.3181 12.3883 13.6519 12.25 14 12.25C14.3481 12.25 14.6819 12.3883 14.9281 12.6344C15.1742 12.8806 15.3125 13.2144 15.3125 13.5625V19.6875C15.3125 20.0356 15.1742 20.3694 14.9281 20.6156C14.6819 20.8617 14.3481 21 14 21C13.6519 21 13.3181 20.8617 13.0719 20.6156C12.8258 20.3694 12.6875 20.0356 12.6875 19.6875V13.5625ZM18.8125 15.75C18.4644 15.75 18.1306 15.8883 17.8844 16.1344C17.6383 16.3806 17.5 16.7144 17.5 17.0625V19.6875C17.5 20.0356 17.6383 20.3694 17.8844 20.6156C18.1306 20.8617 18.4644 21 18.8125 21C19.1606 21 19.4944 20.8617 19.7406 20.6156C19.9867 20.3694 20.125 20.0356 20.125 19.6875V17.0625C20.125 16.7144 19.9867 16.3806 19.7406 16.1344C19.4944 15.8883 19.1606 15.75 18.8125 15.75ZM16.625 1.75C17.7677 1.75 18.7407 2.48063 19.1012 3.5H20.5625C21.3747 3.5 22.1537 3.82266 22.728 4.39699C23.3023 4.97132 23.625 5.75027 23.625 6.5625V23.1875C23.625 23.9997 23.3023 24.7787 22.728 25.353C22.1537 25.9273 21.3747 26.25 20.5625 26.25H7.4375C6.62527 26.25 5.84632 25.9273 5.27199 25.353C4.69766 24.7787 4.375 23.9997 4.375 23.1875V6.5625C4.375 5.75027 4.69766 4.97132 5.27199 4.39699C5.84632 3.82266 6.62527 3.5 7.4375 3.5H8.89875C9.07988 2.98806 9.41528 2.54487 9.85875 2.23146C10.3022 1.91805 10.832 1.74984 11.375 1.75H16.625ZM11.375 3.5C11.1429 3.5 10.9204 3.59219 10.7563 3.75628C10.5922 3.92038 10.5 4.14294 10.5 4.375C10.5 4.60706 10.5922 4.82962 10.7563 4.99372C10.9204 5.15781 11.1429 5.25 11.375 5.25H16.625C16.8571 5.25 17.0796 5.15781 17.2437 4.99372C17.4078 4.82962 17.5 4.60706 17.5 4.375C17.5 4.14294 17.4078 3.92038 17.2437 3.75628C17.0796 3.59219 16.8571 3.5 16.625 3.5H11.375ZM7.4375 5.25C7.0894 5.25 6.75556 5.38828 6.50942 5.63442C6.26328 5.88056 6.125 6.2144 6.125 6.5625V23.1875C6.125 23.5356 6.26328 23.8694 6.50942 24.1156C6.75556 24.3617 7.0894 24.5 7.4375 24.5H20.5625C20.9106 24.5 21.2444 24.3617 21.4906 24.1156C21.7367 23.8694 21.875 23.5356 21.875 23.1875V6.5625C21.875 6.2144 21.7367 5.88056 21.4906 5.63442C21.2444 5.38828 20.9106 5.25 20.5625 5.25H19.1012C18.9201 5.76194 18.5847 6.20513 18.1412 6.51854C17.6978 6.83195 17.168 7.00016 16.625 7H11.375C10.832 7.00016 10.3022 6.83195 9.85875 6.51854C9.41528 6.20513 9.07988 5.76194 8.89875 5.25H7.4375Z" fill="black"/>
</svg>
