<svg width="24" height="24" viewBox="0 0 24 24" fill="none" xmlns="http://www.w3.org/2000/svg">
<path d="M6 16.5C6 16.1022 6.15804 15.7206 6.43934 15.4393C6.72064 15.158 7.10218 15 7.5 15C7.89782 15 8.27936 15.158 8.56066 15.4393C8.84196 15.7206 9 16.1022 9 16.5V18C9 18.3978 8.84196 18.7794 8.56066 19.0607C8.27936 19.342 7.89782 19.5 7.5 19.5C7.10218 19.5 6.72064 19.342 6.43934 19.0607C6.15804 18.7794 6 18.3978 6 18V16.5ZM15 10.5C15 10.1022 15.158 9.72064 15.4393 9.43934C15.7206 9.15804 16.1022 9 16.5 9C16.8978 9 17.2794 9.15804 17.5607 9.43934C17.842 9.72064 18 10.1022 18 10.5V18C18 18.3978 17.842 18.7794 17.5607 19.0607C17.2794 19.342 16.8978 19.5 16.5 19.5C16.1022 19.5 15.7206 19.342 15.4393 19.0607C15.158 18.7794 15 18.3978 15 18V10.5ZM10.5 13.5C10.5 13.1022 10.658 12.7206 10.9393 12.4393C11.2206 12.158 11.6022 12 12 12C12.3978 12 12.7794 12.158 13.0607 12.4393C13.342 12.7206 13.5 13.1022 13.5 13.5V18C13.5 18.3978 13.342 18.7794 13.0607 19.0607C12.7794 19.342 12.3978 19.5 12 19.5C11.6022 19.5 11.2206 19.342 10.9393 19.0607C10.658 18.7794 10.5 18.3978 10.5 18V13.5Z" fill="black"/>
<path d="M21.6213 23.1213C21.0587 23.6839 20.2956 24 19.5 24H18V22.5H19.5C19.8978 22.5 20.2794 22.342 20.5607 22.0607L20.7228 22.2228M21.6213 23.1213L20.7228 22.2228M21.6213 23.1213L20.7228 22.2228M21.6213 23.1213L20.7228 22.2228M21.6213 23.1213C21.7479 22.9947 21.8621 22.8579 21.9629 22.7129M21.6213 23.1213L21.9629 22.7129M6 22.5V24H4.5C3.70435 24 2.94129 23.6839 2.37868 23.1213M6 22.5L2.37868 23.1213M6 22.5H4.5C4.10218 22.5 3.72064 22.342 3.43934 22.0607M6 22.5L3.13286 21.6172M2.37868 23.1213C2.25207 22.9947 2.13795 22.858 2.0371 22.713M2.37868 23.1213L3.13282 21.6171M2.37868 23.1213L-48.7134 74.2133C-48.839 74.089 -48.9644 73.9644 -49.0894 73.8393C-63.5251 59.4037 -72.9409 40.8864 -76.2132 21C-76.6416 18.3964 -76.9647 15.7694 -77.18 13.125C-76.9647 10.4806 -76.6416 7.85356 -76.2132 5.25C-76.1308 4.74912 -76.0445 4.2491 -75.9543 3.75H1.90191L2.37868 23.1213ZM3.43934 22.0607C3.30999 21.9313 3.2067 21.7808 3.13286 21.6172M3.43934 22.0607L3.34244 22.1577L3.43934 22.0607ZM3.13286 21.6172C3.13285 21.6172 3.13284 21.6172 3.13284 21.6171M3.13286 21.6172L3.13284 21.6171M3.13284 21.6171C3.13283 21.6171 3.13283 21.6171 3.13282 21.6171M3.13284 21.6171L3.13282 21.6171M3.13284 21.6171L2.0371 22.713M3.13284 21.6171L2.03707 22.7129M3.13282 21.6171L2.0371 22.713M2.0371 22.713C2.03709 22.7129 2.03708 22.7129 2.03707 22.7129M2.03707 22.7129C2.03706 22.7129 2.03706 22.7129 2.03705 22.7129L2.03707 22.7129ZM21.9629 22.7129C22.3102 22.2136 22.5 21.6166 22.5 21M21.9629 22.7129L22.5 21M22.5 21V5.25M22.5 21V5.25M22.5 5.25C22.5 4.71883 22.3591 4.20218 22.0981 3.75L22.5 5.25Z" fill="black" stroke="black" stroke-width="200"/>
<mask id="path-3-inside-1_85_204" fill="white">
<path d="M14.25 1.5C14.4489 1.5 14.6397 1.57902 14.7803 1.71967C14.921 1.86032 15 2.05109 15 2.25V3.75C15 3.94891 14.921 4.13968 14.7803 4.28033C14.6397 4.42098 14.4489 4.5 14.25 4.5H9.75C9.55109 4.5 9.36032 4.42098 9.21967 4.28033C9.07902 4.13968 9 3.94891 9 3.75V2.25C9 2.05109 9.07902 1.86032 9.21967 1.71967C9.36032 1.57902 9.55109 1.5 9.75 1.5H14.25ZM9.75 0C9.15326 0 8.58097 0.237053 8.15901 0.65901C7.73705 1.08097 7.5 1.65326 7.5 2.25V3.75C7.5 4.34674 7.73705 4.91903 8.15901 5.34099C8.58097 5.76295 9.15326 6 9.75 6H14.25C14.8467 6 15.419 5.76295 15.841 5.34099C16.2629 4.91903 16.5 4.34674 16.5 3.75V2.25C16.5 1.65326 16.2629 1.08097 15.841 0.65901C15.419 0.237053 14.8467 0 14.25 0L9.75 0Z"/>
</mask>
<path d="M14.25 1.5C14.4489 1.5 14.6397 1.57902 14.7803 1.71967C14.921 1.86032 15 2.05109 15 2.25V3.75C15 3.94891 14.921 4.13968 14.7803 4.28033C14.6397 4.42098 14.4489 4.5 14.25 4.5H9.75C9.55109 4.5 9.36032 4.42098 9.21967 4.28033C9.07902 4.13968 9 3.94891 9 3.75V2.25C9 2.05109 9.07902 1.86032 9.21967 1.71967C9.36032 1.57902 9.55109 1.5 9.75 1.5H14.25ZM9.75 0C9.15326 0 8.58097 0.237053 8.15901 0.65901C7.73705 1.08097 7.5 1.65326 7.5 2.25V3.75C7.5 4.34674 7.73705 4.91903 8.15901 5.34099C8.58097 5.76295 9.15326 6 9.75 6H14.25C14.8467 6 15.419 5.76295 15.841 5.34099C16.2629 4.91903 16.5 4.34674 16.5 3.75V2.25C16.5 1.65326 16.2629 1.08097 15.841 0.65901C15.419 0.237053 14.8467 0 14.25 0L9.75 0Z" fill="black"/>
<path d="M14.25 1.5V-198.5V1.5ZM9.75 1.5V-198.5V1.5ZM9.75 0V-200V0ZM16.5 3.75H216.5H16.5ZM16.5 2.25H216.5H16.5ZM14.25 201.5C-38.5942 201.5 -89.2743 180.508 -126.641 143.141L156.202 -139.702C118.554 -177.35 67.492 -198.5 14.25 -198.5V201.5ZM-126.641 143.141C-164.008 105.774 -185 55.094 -185 2.25H215C215 -50.9918 193.85 -102.053 156.202 -139.702L-126.641 143.141ZM-185 2.25V3.75H215V2.25H-185ZM-185 3.75C-185 -49.094 -164.008 -99.7742 -126.641 -137.141L156.202 145.702C193.85 108.054 215 56.9919 215 3.75H-185ZM-126.641 -137.141C-89.2744 -174.508 -38.5943 -195.5 14.25 -195.5V204.5C67.4921 204.5 118.554 183.35 156.202 145.702L-126.641 -137.141ZM14.25 -195.5H9.75V204.5H14.25V-195.5ZM9.75 -195.5C62.5945 -195.5 113.275 -174.508 150.641 -137.141L-132.202 145.702C-94.5539 183.35 -43.4924 204.5 9.75 204.5V-195.5ZM150.641 -137.141C188.008 -99.7745 209 -49.0945 209 3.75H-191C-191 56.9924 -169.85 108.054 -132.202 145.702L150.641 -137.141ZM209 3.75V2.25H-191V3.75H209ZM209 2.25C209 55.0945 188.008 105.774 150.641 143.141L-132.202 -139.702C-169.85 -102.054 -191 -50.9923 -191 2.25H209ZM150.641 143.141C113.274 180.508 62.5944 201.5 9.75 201.5V-198.5C-43.4922 -198.5 -94.5538 -177.35 -132.202 -139.702L150.641 143.141ZM9.75 201.5H14.25V-198.5H9.75V201.5ZM9.75 -200C-43.89 -200 -95.3331 -178.692 -133.262 -140.762L149.58 142.08C112.495 179.166 62.1965 200 9.75 200V-200ZM-133.262 -140.762C-171.192 -102.833 -192.5 -51.39 -192.5 2.25H207.5C207.5 54.6965 186.666 104.995 149.58 142.08L-133.262 -140.762ZM-192.5 2.25V3.75H207.5V2.25H-192.5ZM-192.5 3.75C-192.5 57.39 -171.192 108.833 -133.262 146.762L149.58 -136.08C186.666 -98.995 207.5 -48.6965 207.5 3.75H-192.5ZM-133.262 146.762C-95.3331 184.692 -43.89 206 9.75 206V-194C62.1965 -194 112.495 -173.166 149.58 -136.08L-133.262 146.762ZM9.75 206H14.25V-194H9.75V206ZM14.25 206C67.89 206 119.333 184.692 157.262 146.762L-125.58 -136.08C-88.495 -173.166 -38.1965 -194 14.25 -194V206ZM157.262 146.762C195.192 108.833 216.5 57.39 216.5 3.75H-183.5C-183.5 -48.6965 -162.666 -98.995 -125.58 -136.08L157.262 146.762ZM216.5 3.75V2.25H-183.5V3.75H216.5ZM216.5 2.25C216.5 -51.39 195.192 -102.833 157.262 -140.762L-125.58 142.08C-162.666 104.995 -183.5 54.6965 -183.5 2.25H216.5ZM157.262 -140.762C119.333 -178.692 67.89 -200 14.25 -200V200C-38.1965 200 -88.495 179.166 -125.58 142.08L157.262 -140.762ZM14.25 -200H9.75V200H14.25V-200Z" fill="black" mask="url(#path-3-inside-1_85_204)"/>
</svg>
