<svg width="33" height="33" viewBox="0 0 33 33" fill="none" xmlns="http://www.w3.org/2000/svg">
<path d="M28.8749 30.9376H22.6874C22.1406 30.937 21.6163 30.7196 21.2296 30.3329C20.8429 29.9462 20.6255 29.4219 20.6249 28.8751V22.6876C20.6255 22.1407 20.8429 21.6164 21.2296 21.2298C21.6163 20.8431 22.1406 20.6256 22.6874 20.6251H28.8749C29.4218 20.6256 29.9461 20.8431 30.3327 21.2298C30.7194 21.6164 30.9369 22.1407 30.9374 22.6876V28.8751C30.9369 29.4219 30.7194 29.9462 30.3327 30.3329C29.9461 30.7196 29.4218 30.937 28.8749 30.9376ZM22.6874 22.6876V28.8751H28.8749V22.6876H22.6874ZM18.5624 26.8126H12.3749C11.5547 26.8118 10.7682 26.4855 10.1882 25.9055C9.60821 25.3255 9.282 24.5391 9.28118 23.7188V19.5938H11.3437V23.7188C11.344 23.9922 11.4527 24.2544 11.646 24.4477C11.8394 24.6411 12.1015 24.7498 12.3749 24.7501H18.5624V26.8126ZM26.8124 18.5626H24.7499V15.4688C24.7497 15.1954 24.6409 14.9333 24.4476 14.7399C24.2542 14.5466 23.9921 14.4378 23.7187 14.4376H18.5624V12.3751H23.7187C24.5389 12.3759 25.3254 12.7021 25.9054 13.2821C26.4854 13.8621 26.8116 14.6486 26.8124 15.4688V18.5626ZM15.4687 18.5626C15.2889 18.5627 15.1122 18.5158 14.9561 18.4264L10.3124 15.7658L5.66871 18.4264C5.49455 18.5262 5.29506 18.5729 5.09472 18.5609C4.89438 18.549 4.70189 18.4788 4.54085 18.359C4.3798 18.2393 4.25721 18.0751 4.18809 17.8867C4.11898 17.6983 4.10634 17.4938 4.15174 17.2983L5.2459 12.5834L2.33984 9.46901C2.21282 9.33273 2.12509 9.16458 2.08598 8.98244C2.04686 8.80029 2.05782 8.61095 2.11768 8.43453C2.17754 8.25812 2.28408 8.10121 2.42597 7.98049C2.56786 7.85976 2.7398 7.77973 2.92352 7.74889L7.25477 7.02495L9.38534 2.64214C9.46914 2.47009 9.59917 2.32476 9.76086 2.22241C9.92256 2.12005 10.1095 2.06471 10.3009 2.06256C10.4923 2.06042 10.6804 2.11157 10.8444 2.21029C11.0083 2.309 11.1416 2.45139 11.2292 2.62151L13.5021 7.02495L17.7065 7.74889C17.8898 7.78048 18.0611 7.86106 18.2024 7.9821C18.3436 8.10313 18.4495 8.26011 18.5088 8.43641C18.5681 8.6127 18.5786 8.80176 18.5392 8.98354C18.4998 9.16533 18.412 9.33307 18.285 9.46901L15.379 12.5834L16.4721 17.2983C16.5071 17.4494 16.5077 17.6065 16.4736 17.7578C16.4395 17.9092 16.3717 18.0509 16.2753 18.1724C16.1788 18.2939 16.0562 18.3921 15.9166 18.4597C15.7769 18.5272 15.6238 18.5624 15.4687 18.5626ZM10.3124 13.4063C10.3124 13.4063 10.6661 13.5919 10.825 13.6837L13.929 15.4616L13.1205 11.9791L15.4738 9.45767L12.1398 8.88326L10.3403 5.39557L8.6449 8.88326L5.15824 9.46592L7.5033 11.9791L6.69481 15.4616L9.79887 13.6837C9.95974 13.5919 10.3124 13.4063 10.3124 13.4063Z" fill="black"/>
</svg>
