<svg id="Layer_1" data-name="Layer 1" xmlns="http://www.w3.org/2000/svg" width="141px" height="30px" viewBox="0 0 1166.48 165.66"><defs><style>.cls-1{fill:#fff;}</style></defs><path class="cls-1" d="M258.76,165.66A91.79,91.79,0,0,1,224,159.32a78.19,78.19,0,0,1-26.68-17.54,76.93,76.93,0,0,1-17-26.23,88,88,0,0,1-5.89-32.43,83.64,83.64,0,0,1,6.34-32.57,81,81,0,0,1,17.53-26.38A82.83,82.83,0,0,1,224.86,6.48a84,84,0,0,1,33-6.48,85.83,85.83,0,0,1,33,6.19,79.79,79.79,0,0,1,25.94,17,76.83,76.83,0,0,1,17.09,25.8,85,85,0,0,1,6.19,32.71V97H213.66q4.13,15.63,16.07,24.61t29.62,9q14.14,0,23.87-5.75a44.34,44.34,0,0,0,15.62-15.47l33.32,19.45a93.79,93.79,0,0,1-29.48,26.83Q285.28,165.66,258.76,165.66Zm-.88-131.17q-15.63,0-26.83,8.25a46.19,46.19,0,0,0-16.21,22.4h84.89q-4.12-15-15-22.84T257.88,34.49ZM721.23,165.66a91.86,91.86,0,0,1-34.78-6.34,78.14,78.14,0,0,1-26.67-17.54,76.78,76.78,0,0,1-16.95-26.23,88,88,0,0,1-5.89-32.43,83.82,83.82,0,0,1,6.33-32.57,81.19,81.19,0,0,1,17.54-26.38A82.83,82.83,0,0,1,687.34,6.48a84,84,0,0,1,33-6.48,85.76,85.76,0,0,1,33,6.19,79.68,79.68,0,0,1,25.94,17,76.85,76.85,0,0,1,17.1,25.8,85,85,0,0,1,6.19,32.71V97H676.14q4.13,15.63,16.07,24.61t29.62,9q14.14,0,23.87-5.75a44.42,44.42,0,0,0,15.62-15.47l33.31,19.45a93.65,93.65,0,0,1-29.47,26.83Q747.76,165.66,721.23,165.66Zm-.88-131.17q-15.61,0-26.82,8.25a46.27,46.27,0,0,0-16.22,22.4H762.2q-4.12-15-15-22.84T720.35,34.49ZM908.41,165.66a84.54,84.54,0,0,1-33.32-6.49A83.43,83.43,0,0,1,830.73,50.55a80,80,0,0,1,17.69-26.38,86.11,86.11,0,0,1,120,0A82.26,82.26,0,0,1,992.7,82.83,80.32,80.32,0,0,1,986.22,115a85.1,85.1,0,0,1-17.69,26.38,80.79,80.79,0,0,1-26.67,17.83A85.54,85.54,0,0,1,908.41,165.66ZM908.7,127a41.62,41.62,0,0,0,17.1-3.53,45.62,45.62,0,0,0,13.85-9.43,43.42,43.42,0,0,0,9.29-14,46.71,46.71,0,0,0,0-34.94A43,43,0,0,0,939.65,51a45.65,45.65,0,0,0-13.85-9.44,43.18,43.18,0,0,0-34.2,0A45.52,45.52,0,0,0,877.75,51a42.34,42.34,0,0,0-9.28,14.14,46.71,46.71,0,0,0,0,34.94,42.75,42.75,0,0,0,9.28,14,45.5,45.5,0,0,0,13.85,9.43A41.58,41.58,0,0,0,908.7,127ZM366.64,3.25h40.67V22.11A52.7,52.7,0,0,1,425.89,5.9Q437.08,0,451.53,0q18,0,30.06,6.93a46.11,46.11,0,0,1,18.58,19.89,56.09,56.09,0,0,1,20.49-19.6Q533.47,0,550,0q30.36,0,45.54,17.25t15.19,47.31v97.86H568.84v-92q0-16.22-6.92-25.5t-22.55-9.28q-13.86,0-22.1,9.28T509,73.11v89.31H467.45V69.27q0-15.91-6.78-24.76t-21.81-8.84q-14.44,0-22.84,9.43T407.61,74v88.43h-41ZM0,162.39H41V3.28H0ZM66.24,3.24V44.19h41V162.42h41V3.24Zm952,159.15h41V3.28h-41ZM1084.49,3.24V44.19h41V162.42h41V3.24Z" transform="translate(0 0)"/></svg>
