<?xml version="1.0" encoding="UTF-8"?>
<svg width="141px" height="30px" viewBox="0 0 141 30" version="1.1" xmlns="http://www.w3.org/2000/svg" xmlns:xlink="http://www.w3.org/1999/xlink">
    <title>Logo</title>
    <g id="Page-1" stroke="none" stroke-width="1" fill="none" fill-rule="evenodd">
        <g id="NUC-Contact-(Desktop)" transform="translate(-60.000000, -30.000000)" fill="#FFFFFF">
            <g id="Logo" transform="translate(60.000000, 30.000000)">
                <g id="Group-5" transform="translate(21.750000, 8.143875)">
                    <path d="M7.923825,20.999925 C5.492325,20.999925 3.607575,20.270175 2.270325,18.811425 C0.933075,17.352675 0.264075,15.321675 0.264075,12.719925 L0.264075,0.902175 L5.407575,0.902175 L5.407575,12.026925 C5.407575,13.412925 5.735325,14.507925 6.392325,15.309675 C7.048575,16.112925 8.057325,16.513425 9.419325,16.513425 C10.610325,16.513425 11.595825,16.100175 12.373575,15.272925 C13.152075,14.446425 13.541325,13.267425 13.541325,11.735175 L13.541325,0.902175 L18.647325,0.865425 L18.647325,20.562675 L13.614075,20.598675 L13.614075,18.118425 C12.981825,19.017675 12.178575,19.722675 11.207325,20.233425 C10.233825,20.744175 9.139575,20.999925 7.923825,20.999925" id="Fill-1"></path>
                    <path d="M32.325225,20.999925 C30.841725,20.999925 29.467725,20.732175 28.203225,20.198175 C26.939475,19.662675 25.844475,18.932925 24.921225,18.008925 C23.996475,17.084925 23.273475,16.001925 22.750725,14.762925 C22.227225,13.523175 21.966225,12.185925 21.966225,10.750425 C21.966225,9.291675 22.227225,7.941675 22.750725,6.701925 C23.273475,5.461425 24.003225,4.379925 24.939225,3.455175 C25.874475,2.531925 26.969475,1.808175 28.221975,1.284675 C29.473725,0.762675 30.829725,0.500925 32.288475,0.500925 C33.432225,0.500925 34.501725,0.653175 35.498475,0.956925 C36.495975,1.261425 37.401225,1.685925 38.216475,2.234175 C39.030975,2.780175 39.747975,3.437175 40.368225,4.203675 C40.987725,4.968675 41.492475,5.813925 41.882475,6.738675 L37.249725,8.597925 C36.835725,7.528425 36.203475,6.695925 35.352225,6.099675 C34.501725,5.504175 33.504225,5.206425 32.361975,5.206425 C31.608225,5.206425 30.903225,5.351925 30.246225,5.643675 C29.589975,5.935425 29.018475,6.331425 28.532475,6.828675 C28.044975,7.327425 27.662475,7.917675 27.383475,8.597925 C27.103725,9.278925 26.964225,9.997425 26.964225,10.750425 C26.964225,11.504175 27.103725,12.209175 27.383475,12.866175 C27.662475,13.523175 28.051725,14.100675 28.549725,14.597925 C29.048475,15.097425 29.626725,15.492675 30.282975,15.783675 C30.939225,16.076175 31.644225,16.221675 32.397975,16.221675 C33.565725,16.221675 34.568475,15.905925 35.407725,15.272925 C36.246975,14.641425 36.872475,13.814175 37.286475,12.792675 L41.991975,14.726175 C41.139975,16.550175 39.906225,18.052425 38.289225,19.230675 C36.671475,20.411175 34.683225,20.999925 32.325225,20.999925" id="Fill-3"></path>
                </g>
                <polygon id="Fill-6" points="66.69525 28.741875 71.7285 28.741875 71.7285 -0.000375 66.69525 -0.000375"></polygon>
                <g id="Group-11" transform="translate(75.000000, 8.143875)">
                    <path d="M10.44255,20.999925 C8.8623,20.999925 7.42755,20.738175 6.1383,20.216175 C4.84905,19.692675 3.74955,18.969675 2.8383,18.045675 C1.9263,17.121675 1.22655,16.039425 0.74055,14.798925 C0.25455,13.558425 0.0108,12.222675 0.0108,10.787175 C0.0108,9.352425 0.2718,8.009175 0.7953,6.756675 C1.31805,5.504175 2.04105,4.416675 2.9658,3.491925 C3.88905,2.568675 4.98405,1.838175 6.2478,1.303425 C7.5123,0.768675 8.8743,0.500925 10.33305,0.500925 C11.81655,0.500925 13.17855,0.755925 14.4183,1.266675 C15.6588,1.777425 16.7283,2.477175 17.6283,3.363675 C18.52755,4.252425 19.2333,5.315175 19.74405,6.555675 C20.2548,7.796175 20.51055,9.145425 20.51055,10.604175 L20.51055,12.501675 L4.86255,12.501675 C5.20305,13.790175 5.8653,14.805675 6.85005,15.547425 C7.8348,16.289175 9.0573,16.658925 10.51605,16.658925 C11.68305,16.658925 12.6678,16.422675 13.4703,15.947925 C14.2728,15.473925 14.91705,14.835675 15.40305,14.032425 L19.5258,16.440675 C18.52755,17.826675 17.31255,18.932925 15.87705,19.759425 C14.44305,20.587425 12.6318,20.999925 10.44255,20.999925 M10.33305,4.767675 C9.0438,4.767675 7.9383,5.108925 7.0143,5.789175 C6.08955,6.470925 5.4213,7.394175 5.0088,8.561925 L15.51255,8.561925 C15.1728,7.322175 14.5518,6.379425 13.65255,5.735175 C12.75255,5.090925 11.64705,4.767675 10.33305,4.767675" id="Fill-7"></path>
                    <path d="M33.60405,20.999925 C32.12055,20.999925 30.74655,20.732175 29.48205,20.198175 C28.21755,19.662675 27.11655,18.926925 26.18055,17.990925 C25.24455,17.054925 24.51555,15.966675 23.9928,14.726175 C23.4693,13.486425 23.2083,12.161175 23.2083,10.750425 C23.2083,9.340425 23.4693,8.009175 23.9928,6.756675 C24.51555,5.504175 25.24455,4.416675 26.18055,3.491925 C27.11655,2.568675 28.21755,1.838175 29.48205,1.303425 C30.74655,0.768675 32.12055,0.500925 33.60405,0.500925 C35.0628,0.500925 36.43005,0.768675 37.7073,1.303425 C38.98455,1.838175 40.09005,2.568675 41.0268,3.491925 C41.96205,4.416675 42.69855,5.504175 43.2333,6.756675 C43.76805,8.009175 44.0358,9.340425 44.0358,10.750425 C44.0358,12.161175 43.76805,13.486425 43.2333,14.726175 C42.69855,15.966675 41.9688,17.054925 41.04405,17.990925 C40.12005,18.926925 39.0198,19.662675 37.74405,20.198175 C36.4668,20.732175 35.0868,20.999925 33.60405,20.999925 M33.6393,16.221675 C34.3938,16.221675 35.09955,16.076175 35.7558,15.783675 C36.4128,15.492675 36.98355,15.103425 37.46955,14.616675 C37.9563,14.130675 38.33955,13.553175 38.6193,12.884175 C38.8983,12.215925 39.03855,11.492175 39.03855,10.713675 C39.03855,9.960675 38.8983,9.242175 38.6193,8.561925 C38.33955,7.881675 37.9563,7.297425 37.46955,6.811425 C36.98355,6.324675 36.4128,5.935425 35.7558,5.643675 C35.09955,5.351925 34.3938,5.206425 33.6393,5.206425 C32.8863,5.206425 32.1813,5.351925 31.52505,5.643675 C30.86805,5.935425 30.29655,6.324675 29.81055,6.811425 C29.3238,7.297425 28.9413,7.881675 28.6608,8.561925 C28.38105,9.242175 28.24155,9.960675 28.24155,10.713675 C28.24155,11.492175 28.38105,12.215925 28.6608,12.884175 C28.9413,13.553175 29.3238,14.130675 29.81055,14.616675 C30.29655,15.103425 30.86805,15.492675 31.52505,15.783675 C32.1813,16.076175 32.8863,16.221675 33.6393,16.221675" id="Fill-9"></path>
                </g>
                <polygon id="Fill-12" points="0 28.807875 5.079 28.807875 5.079 9.074625 0 9.074625"></polygon>
                <polygon id="Fill-13" points="8.215425 9.07005 8.215425 14.14905 13.303425 14.14905 13.303425 28.81155 18.382425 28.81155 18.382425 14.14905 18.384675 14.14905 18.384675 9.07005"></polygon>
                <polygon id="Fill-14" points="122.3535 28.807875 127.43175 28.807875 127.43175 9.074625 122.3535 9.074625"></polygon>
                <polygon id="Fill-15" points="130.5693 9.07005 130.5693 14.14905 135.6573 14.14905 135.6573 28.81155 140.7363 28.81155 140.7363 14.14905 140.73855 14.14905 140.7378 9.07005"></polygon>
            </g>
        </g>
    </g>
</svg>