<svg width="27" height="26" viewBox="0 0 27 26" fill="none" xmlns="http://www.w3.org/2000/svg">
<path d="M19.2502 16.5022H18.0652L17.6452 16.0972C18.5826 15.0081 19.2677 13.7253 19.6515 12.3406C20.0353 10.9558 20.1083 9.50339 19.8652 8.08716C19.1602 3.91716 15.6802 0.587159 11.4802 0.0771595C10.0036 -0.109642 8.50389 0.0438169 7.09574 0.525793C5.6876 1.00777 4.40837 1.80549 3.35595 2.85791C2.30353 3.91033 1.50582 5.18955 1.02384 6.5977C0.541864 8.00584 0.388405 9.50558 0.575206 10.9822C1.08521 15.1822 4.41521 18.6622 8.58521 19.3672C10.0014 19.6102 11.4539 19.5373 12.8386 19.1535C14.2234 18.7697 15.5062 18.0846 16.5952 17.1472L17.0002 17.5672V18.7522L23.3752 25.1272C23.9902 25.7422 24.9952 25.7422 25.6102 25.1272C26.2252 24.5122 26.2252 23.5072 25.6102 22.8922L19.2502 16.5022ZM10.2502 16.5022C6.51521 16.5022 3.50021 13.4872 3.50021 9.75216C3.50021 6.01716 6.51521 3.00216 10.2502 3.00216C13.9852 3.00216 17.0002 6.01716 17.0002 9.75216C17.0002 13.4872 13.9852 16.5022 10.2502 16.5022Z" fill="black"/>
</svg>
