<svg width="25" height="25" viewBox="0 0 25 25" fill="none" xmlns="http://www.w3.org/2000/svg">
<g clip-path="url(#clip0_85_209)">
<path d="M20.8334 6.40318C20.6104 6.35111 20.3842 6.31387 20.1563 6.29173C19.8429 4.70446 19.044 3.25382 17.8701 2.14051C16.6961 1.0272 15.2052 0.306272 13.6036 0.077467C12.0019 -0.151339 10.3688 0.123293 8.93005 0.863364C7.49133 1.60343 6.3182 2.77235 5.57295 4.20839C5.09251 4.26553 4.6205 4.37917 4.1667 4.54693C2.94897 4.97436 1.89406 5.76947 1.14776 6.82237C0.401459 7.87527 0.000610352 9.13397 0.000610352 10.4245C0.000610352 11.7151 0.401459 12.9738 1.14776 14.0267C1.89406 15.0796 2.94897 15.8747 4.1667 16.3021V14.0063C3.53356 13.6438 3.00741 13.1205 2.64149 12.4894C2.27557 11.8582 2.08285 11.1416 2.08285 10.412C2.08285 9.68248 2.27557 8.96586 2.64149 8.33471C3.00741 7.70355 3.53356 7.18025 4.1667 6.81777C4.66453 6.52647 5.21829 6.34365 5.7917 6.28131L6.90628 6.16673L7.42712 5.17714C7.97136 4.12281 8.83023 3.26398 9.88459 2.7198C10.939 2.17561 12.1365 1.97305 13.3112 2.14021C14.4859 2.30737 15.5795 2.83596 16.4402 3.65266C17.3009 4.46936 17.8861 5.53368 18.1146 6.69798L18.4271 8.26048L20.0209 8.37506C20.2986 8.39686 20.572 8.45679 20.8334 8.55318C21.4413 8.7622 21.9687 9.15581 22.3421 9.67906C22.7156 10.2023 22.9163 10.8291 22.9163 11.4719C22.9163 12.1148 22.7156 12.7416 22.3421 13.2648C21.9687 13.7881 21.4413 14.1817 20.8334 14.3907V16.5615C22.008 16.3273 23.0652 15.6931 23.8249 14.767C24.5845 13.8409 24.9997 12.6802 24.9997 11.4824C24.9997 10.2845 24.5845 9.12378 23.8249 8.19768C23.0652 7.27158 22.008 6.63743 20.8334 6.40318Z" fill="black"/>
<path d="M12.5 11.458C8.52292 11.458 6.25 12.2476 6.25 13.7153V22.7424C6.25 24.2101 9.46562 24.9997 12.5 24.9997C15.5344 24.9997 18.75 24.2101 18.75 22.7424V13.7153C18.75 12.2476 16.4771 11.458 12.5 11.458ZM12.5 12.4997C15.324 12.4997 17.6146 13.3434 17.6146 14.2788C17.6146 15.2143 15.3229 15.9715 12.5 15.9715C9.67708 15.9715 7.38542 15.2143 7.38542 14.2788C7.38542 13.3434 9.67708 12.4997 12.5 12.4997ZM7.38542 20.7538V19.5632C9.00701 20.225 10.7494 20.5394 12.5 20.4861C14.2506 20.5394 15.993 20.225 17.6146 19.5632V20.7913C15.9814 21.403 14.2426 21.6828 12.5 21.6143C10.7552 21.6656 9.01735 21.3733 7.38542 20.7538Z" fill="black"/>
</g>
<defs>
<clipPath id="clip0_85_209">
<rect width="25" height="25" fill="white"/>
</clipPath>
</defs>
</svg>
