<svg width="30" height="30" viewBox="0 0 30 30" fill="none" xmlns="http://www.w3.org/2000/svg">
<path d="M15 27.5C13.4583 27.5 12.005 27.2029 10.64 26.6088C9.275 26.0146 8.0825 25.2075 7.0625 24.1875C6.04167 23.1667 5.23417 21.9737 4.64 20.6087C4.04583 19.2437 3.74917 17.7908 3.75 16.25H6.25C6.25 18.6667 7.10417 20.7292 8.8125 22.4375C10.5208 24.1458 12.5833 25 15 25C17.4167 25 19.4792 24.1458 21.1875 22.4375C22.8958 20.7292 23.75 18.6667 23.75 16.25H26.25C26.25 17.7917 25.9529 19.245 25.3588 20.61C24.7646 21.975 23.9575 23.1675 22.9375 24.1875C21.9167 25.2083 20.7238 26.0158 19.3588 26.61C17.9938 27.2042 16.5408 27.5008 15 27.5ZM3.75 16.25C3.75 14.7083 4.04709 13.255 4.64125 11.89C5.23542 10.525 6.0425 9.3325 7.0625 8.3125C8.08334 7.29167 9.27625 6.48417 10.6413 5.89C12.0063 5.29583 13.4592 4.99917 15 5C16.2917 5 17.5313 5.20833 18.7188 5.625C19.9063 6.04167 21.0208 6.64583 22.0625 7.4375L23.8125 5.6875L25.5625 7.4375L23.8125 9.1875C24.6042 10.2292 25.2083 11.3438 25.625 12.5312C26.0417 13.7187 26.25 14.9583 26.25 16.25H23.75C23.75 13.8333 22.8958 11.7708 21.1875 10.0625C19.4792 8.35417 17.4167 7.5 15 7.5C12.5833 7.5 10.5208 8.35417 8.8125 10.0625C7.10417 11.7708 6.25 13.8333 6.25 16.25H3.75ZM11.25 3.75V1.25H18.75V3.75H11.25ZM15 7.5C12.7917 7.5 10.875 8.21875 9.25 9.65625C7.625 11.0938 6.65625 12.875 6.34375 15H10.7813L12.4063 18L17.5 9.0625L20.75 15H23.6562C23.3438 12.875 22.375 11.0938 20.75 9.65625C19.125 8.21875 17.2083 7.5 15 7.5ZM15 25C17.2083 25 19.125 24.2812 20.75 22.8438C22.375 21.4062 23.3438 19.625 23.6562 17.5H19.2188L17.5938 14.5L12.5 23.4375L9.25 17.5H6.34375C6.65625 19.625 7.625 21.4062 9.25 22.8438C10.875 24.2812 12.7917 25 15 25ZM15 25C12.5833 25 10.5208 24.1458 8.8125 22.4375C7.10417 20.7292 6.25 18.6667 6.25 16.25C6.25 13.8333 7.10417 11.7708 8.8125 10.0625C10.5208 8.35417 12.5833 7.5 15 7.5C17.4167 7.5 19.4792 8.35417 21.1875 10.0625C22.8958 11.7708 23.75 13.8333 23.75 16.25C23.75 18.6667 22.8958 20.7292 21.1875 22.4375C19.4792 24.1458 17.4167 25 15 25Z" fill="black"/>
</svg>
